<svg xmlns="http://www.w3.org/2000/svg" viewBox="0 0 660 430" font-family="ui-sans-serif,system-ui,sans-serif">
<style>
  :root{--ink:#111827;--muted:#6b7280;--grid:#e9ecf1;--surface:#ffffff;--accent:#2563eb;--floor:#9aa2af;}
  @media (prefers-color-scheme:dark){:root{--ink:#e8eaed;--muted:#9aa2af;--grid:#2a3242;--surface:#0f1420;--accent:#5b9dff;--floor:#7c8494;}}
  :root[data-theme=dark]{--ink:#e8eaed;--muted:#9aa2af;--grid:#2a3242;--surface:#0f1420;--accent:#5b9dff;--floor:#7c8494;}
  :root[data-theme=light]{--ink:#111827;--muted:#6b7280;--grid:#e9ecf1;--surface:#ffffff;--accent:#2563eb;--floor:#9aa2af;}
  .ink{fill:var(--ink)} .mut{fill:var(--muted)} .gl{stroke:var(--grid)}
</style>
<rect x="0" y="0" width="660" height="430" fill="var(--surface)"/>
<text x="78" y="30" class="ink" font-size="16" font-weight="600">Panel size vs error: variance reduction hits a shared-bias floor</text>
<text x="78" y="48" class="mut" font-size="12">8 Sonnet experts, all C(8,k) subsets scored against the documented external reference (mean abs error, of 5)</text>
<line x1="78" y1="372.0" x2="626" y2="372.0" class="gl" stroke-width="1"/>
<text x="68" y="376.0" class="mut" font-size="11" text-anchor="end">0.00</text>
<line x1="78" y1="302.5" x2="626" y2="302.5" class="gl" stroke-width="1"/>
<text x="68" y="306.5" class="mut" font-size="11" text-anchor="end">0.05</text>
<line x1="78" y1="232.9" x2="626" y2="232.9" class="gl" stroke-width="1"/>
<text x="68" y="236.9" class="mut" font-size="11" text-anchor="end">0.10</text>
<line x1="78" y1="163.4" x2="626" y2="163.4" class="gl" stroke-width="1"/>
<text x="68" y="167.4" class="mut" font-size="11" text-anchor="end">0.15</text>
<line x1="78" y1="93.8" x2="626" y2="93.8" class="gl" stroke-width="1"/>
<text x="68" y="97.8" class="mut" font-size="11" text-anchor="end">0.20</text>
<text x="78.0" y="394" class="mut" font-size="11" text-anchor="middle">1</text>
<text x="156.3" y="394" class="mut" font-size="11" text-anchor="middle">2</text>
<text x="234.6" y="394" class="mut" font-size="11" text-anchor="middle">3</text>
<text x="312.9" y="394" class="mut" font-size="11" text-anchor="middle">4</text>
<text x="391.1" y="394" class="mut" font-size="11" text-anchor="middle">5</text>
<text x="469.4" y="394" class="mut" font-size="11" text-anchor="middle">6</text>
<text x="547.7" y="394" class="mut" font-size="11" text-anchor="middle">7</text>
<text x="626.0" y="394" class="mut" font-size="11" text-anchor="middle">8</text>
<text x="352.0" y="416" class="mut" font-size="12" text-anchor="middle">panel size (independent voices)</text>
<line x1="78" y1="232.9" x2="626" y2="232.9" stroke="var(--floor)" stroke-width="1.5" stroke-dasharray="2 4"/>
<text x="626" y="225.9" class="mut" font-size="11" text-anchor="end">irreducible shared-bias floor ≈ 0.10 — no number of same-model voices reaches it</text>
<path d="M78.0,97.7 L85.8,107.1 L93.7,115.2 L101.5,122.3 L109.3,128.5 L117.1,134.1 L125.0,139.0 L132.8,143.5 L140.6,147.5 L148.5,151.2 L156.3,154.5 L164.1,157.6 L171.9,160.4 L179.8,163.1 L187.6,165.5 L195.4,167.8 L203.3,169.9 L211.1,171.9 L218.9,173.7 L226.7,175.5 L234.6,177.1 L242.4,178.7 L250.2,180.1 L258.1,181.5 L265.9,182.8 L273.7,184.1 L281.5,185.2 L289.4,186.4 L297.2,187.4 L305.0,188.5 L312.9,189.5 L320.7,190.4 L328.5,191.3 L336.3,192.1 L344.2,193.0 L352.0,193.8 L359.8,194.5 L367.7,195.2 L375.5,195.9 L383.3,196.6 L391.1,197.3 L399.0,197.9 L406.8,198.5 L414.6,199.1 L422.5,199.7 L430.3,200.2 L438.1,200.7 L445.9,201.3 L453.8,201.7 L461.6,202.2 L469.4,202.7 L477.3,203.1 L485.1,203.6 L492.9,204.0 L500.7,204.4 L508.6,204.8 L516.4,205.2 L524.2,205.6 L532.1,206.0 L539.9,206.3 L547.7,206.7 L555.5,207.0 L563.4,207.3 L571.2,207.7 L579.0,208.0 L586.9,208.3 L594.7,208.6 L602.5,208.9 L610.3,209.2 L618.2,209.4 L626.0,209.7" fill="none" stroke="var(--accent)" stroke-width="1.5" stroke-dasharray="5 4" opacity="0.7"/>
<path d="M78.0,99.4 L156.3,152.2 L234.6,174.5 L312.9,187.0 L391.1,196.7 L469.4,203.7 L547.7,207.9 L626.0,213.4" fill="none" stroke="var(--accent)" stroke-width="2.5"/>
<circle cx="78.0" cy="99.4" r="4.5" fill="var(--accent)" stroke="var(--surface)" stroke-width="2"/>
<circle cx="156.3" cy="152.2" r="4.5" fill="var(--accent)" stroke="var(--surface)" stroke-width="2"/>
<circle cx="234.6" cy="174.5" r="4.5" fill="var(--accent)" stroke="var(--surface)" stroke-width="2"/>
<circle cx="312.9" cy="187.0" r="4.5" fill="var(--accent)" stroke="var(--surface)" stroke-width="2"/>
<circle cx="391.1" cy="196.7" r="4.5" fill="var(--accent)" stroke="var(--surface)" stroke-width="2"/>
<circle cx="469.4" cy="203.7" r="4.5" fill="var(--accent)" stroke="var(--surface)" stroke-width="2"/>
<circle cx="547.7" cy="207.9" r="4.5" fill="var(--accent)" stroke="var(--surface)" stroke-width="2"/>
<circle cx="626.0" cy="213.4" r="4.5" fill="var(--accent)" stroke="var(--surface)" stroke-width="2"/>
<text x="78.0" y="87.4" class="ink" font-size="11" font-weight="600" text-anchor="middle">0.196</text>
<text x="312.9" y="175.0" class="ink" font-size="11" font-weight="600" text-anchor="middle">0.133</text>
<text x="626.0" y="201.4" class="ink" font-size="11" font-weight="600" text-anchor="middle">0.114</text>
<text x="322.9" y="213.0" class="mut" font-size="11">k=4: ~78% of the achievable reduction</text>
<text x="86" y="80" class="mut" font-size="11">fit  MAE(k) = √(0.10² + 0.17²/k)</text>
</svg>